<?xml version="1.0" encoding="utf-8" standalone="no"?>
<!DOCTYPE svg PUBLIC "-//W3C//DTD SVG 1.1//EN"
  "http://www.w3.org/Graphics/SVG/1.1/DTD/svg11.dtd">
<svg height="340.609031pt" version="1.1" viewBox="0 0 430.458875 340.609031" width="430.458875pt" xmlns="http://www.w3.org/2000/svg" xmlns:xlink="http://www.w3.org/1999/xlink">
 <metadata>
  <rdf:RDF xmlns:cc="http://creativecommons.org/ns#" xmlns:dc="http://purl.org/dc/elements/1.1/" xmlns:rdf="http://www.w3.org/1999/02/22-rdf-syntax-ns#">
   <cc:Work>
    <dc:type rdf:resource="http://purl.org/dc/dcmitype/StillImage"/>
    <dc:date>2024-07-11T15:08:44.690391</dc:date>
    <dc:format>image/svg+xml</dc:format>
    <dc:creator>
     <cc:Agent>
      <dc:title>Matplotlib v3.4.3, https://matplotlib.org/</dc:title>
     </cc:Agent>
    </dc:creator>
   </cc:Work>
  </rdf:RDF>
 </metadata>
 <defs>
  <style type="text/css">*{stroke-linecap:butt;stroke-linejoin:round;}</style>
 </defs>
 <g id="figure_1">
  <g id="patch_1">
   <path d="M 0 340.609031 
L 430.458875 340.609031 
L 430.458875 0 
L 0 0 
z
" style="fill:#ffffff;"/>
  </g>
  <g id="axes_1">
   <g id="patch_2">
    <path d="M 13.266375 293.712 
L 370.386375 293.712 
L 370.386375 27.6 
L 13.266375 27.6 
z
" style="fill:#f0f0f0;"/>
   </g>
   <g id="patch_3">
    <path clip-path="url(#pa1e51e0c2b)" d="M 354.315975 173.9616 
C 356.210162 173.9616 358.027022 166.391005 359.366414 152.917152 
C 360.705807 139.443298 361.458375 121.166266 361.458375 102.11136 
C 361.458375 83.056454 360.705807 64.779422 359.366414 51.305568 
C 358.027022 37.831715 356.210162 30.26112 354.315975 30.26112 
C 352.421788 30.26112 350.604928 37.831715 349.265536 51.305568 
C 347.926143 64.779422 347.173575 83.056454 347.173575 102.11136 
C 347.173575 121.166266 347.926143 139.443298 349.265536 152.917152 
C 350.604928 166.391005 352.421788 173.9616 354.315975 173.9616 
z
" style="fill:none;opacity:0.8;stroke:#000000;stroke-linejoin:miter;stroke-width:0.8;"/>
   </g>
   <g id="matplotlib.axis_1">
    <g id="xtick_1">
     <g id="line2d_1">
      <defs>
       <path d="M 0 0 
L 0 3.5 
" id="m39bbb42398" style="stroke:#000000;stroke-width:0.8;"/>
      </defs>
      <g>
       <use style="stroke:#000000;stroke-width:0.8;" x="354.563805" xlink:href="#m39bbb42398" y="293.712"/>
      </g>
     </g>
     <g id="text_1">
      <!-- 0 -->
      <g transform="translate(350.110055 311.349812)scale(0.14 -0.14)">
       <defs>
        <path d="M 2034 4250 
Q 1547 4250 1301 3770 
Q 1056 3291 1056 2328 
Q 1056 1369 1301 889 
Q 1547 409 2034 409 
Q 2525 409 2770 889 
Q 3016 1369 3016 2328 
Q 3016 3291 2770 3770 
Q 2525 4250 2034 4250 
z
M 2034 4750 
Q 2819 4750 3233 4129 
Q 3647 3509 3647 2328 
Q 3647 1150 3233 529 
Q 2819 -91 2034 -91 
Q 1250 -91 836 529 
Q 422 1150 422 2328 
Q 422 3509 836 4129 
Q 1250 4750 2034 4750 
z
" id="DejaVuSans-30" transform="scale(0.015625)"/>
       </defs>
       <use xlink:href="#DejaVuSans-30"/>
      </g>
     </g>
    </g>
    <g id="xtick_2">
     <g id="line2d_2">
      <g>
       <use style="stroke:#000000;stroke-width:0.8;" x="273.344533" xlink:href="#m39bbb42398" y="293.712"/>
      </g>
     </g>
     <g id="text_2">
      <!-- 200 -->
      <g transform="translate(259.983283 311.349812)scale(0.14 -0.14)">
       <defs>
        <path d="M 1228 531 
L 3431 531 
L 3431 0 
L 469 0 
L 469 531 
Q 828 903 1448 1529 
Q 2069 2156 2228 2338 
Q 2531 2678 2651 2914 
Q 2772 3150 2772 3378 
Q 2772 3750 2511 3984 
Q 2250 4219 1831 4219 
Q 1534 4219 1204 4116 
Q 875 4013 500 3803 
L 500 4441 
Q 881 4594 1212 4672 
Q 1544 4750 1819 4750 
Q 2544 4750 2975 4387 
Q 3406 4025 3406 3419 
Q 3406 3131 3298 2873 
Q 3191 2616 2906 2266 
Q 2828 2175 2409 1742 
Q 1991 1309 1228 531 
z
" id="DejaVuSans-32" transform="scale(0.015625)"/>
       </defs>
       <use xlink:href="#DejaVuSans-32"/>
       <use x="63.623047" xlink:href="#DejaVuSans-30"/>
       <use x="127.246094" xlink:href="#DejaVuSans-30"/>
      </g>
     </g>
    </g>
    <g id="xtick_3">
     <g id="line2d_3">
      <g>
       <use style="stroke:#000000;stroke-width:0.8;" x="192.125262" xlink:href="#m39bbb42398" y="293.712"/>
      </g>
     </g>
     <g id="text_3">
      <!-- 400 -->
      <g transform="translate(178.764012 311.349812)scale(0.14 -0.14)">
       <defs>
        <path d="M 2419 4116 
L 825 1625 
L 2419 1625 
L 2419 4116 
z
M 2253 4666 
L 3047 4666 
L 3047 1625 
L 3713 1625 
L 3713 1100 
L 3047 1100 
L 3047 0 
L 2419 0 
L 2419 1100 
L 313 1100 
L 313 1709 
L 2253 4666 
z
" id="DejaVuSans-34" transform="scale(0.015625)"/>
       </defs>
       <use xlink:href="#DejaVuSans-34"/>
       <use x="63.623047" xlink:href="#DejaVuSans-30"/>
       <use x="127.246094" xlink:href="#DejaVuSans-30"/>
      </g>
     </g>
    </g>
    <g id="xtick_4">
     <g id="line2d_4">
      <g>
       <use style="stroke:#000000;stroke-width:0.8;" x="110.90599" xlink:href="#m39bbb42398" y="293.712"/>
      </g>
     </g>
     <g id="text_4">
      <!-- 600 -->
      <g transform="translate(97.54474 311.349812)scale(0.14 -0.14)">
       <defs>
        <path d="M 2113 2584 
Q 1688 2584 1439 2293 
Q 1191 2003 1191 1497 
Q 1191 994 1439 701 
Q 1688 409 2113 409 
Q 2538 409 2786 701 
Q 3034 994 3034 1497 
Q 3034 2003 2786 2293 
Q 2538 2584 2113 2584 
z
M 3366 4563 
L 3366 3988 
Q 3128 4100 2886 4159 
Q 2644 4219 2406 4219 
Q 1781 4219 1451 3797 
Q 1122 3375 1075 2522 
Q 1259 2794 1537 2939 
Q 1816 3084 2150 3084 
Q 2853 3084 3261 2657 
Q 3669 2231 3669 1497 
Q 3669 778 3244 343 
Q 2819 -91 2113 -91 
Q 1303 -91 875 529 
Q 447 1150 447 2328 
Q 447 3434 972 4092 
Q 1497 4750 2381 4750 
Q 2619 4750 2861 4703 
Q 3103 4656 3366 4563 
z
" id="DejaVuSans-36" transform="scale(0.015625)"/>
       </defs>
       <use xlink:href="#DejaVuSans-36"/>
       <use x="63.623047" xlink:href="#DejaVuSans-30"/>
       <use x="127.246094" xlink:href="#DejaVuSans-30"/>
      </g>
     </g>
    </g>
    <g id="xtick_5">
     <g id="line2d_5">
      <g>
       <use style="stroke:#000000;stroke-width:0.8;" x="29.686719" xlink:href="#m39bbb42398" y="293.712"/>
      </g>
     </g>
     <g id="text_5">
      <!-- 800 -->
      <g transform="translate(16.325469 311.349812)scale(0.14 -0.14)">
       <defs>
        <path d="M 2034 2216 
Q 1584 2216 1326 1975 
Q 1069 1734 1069 1313 
Q 1069 891 1326 650 
Q 1584 409 2034 409 
Q 2484 409 2743 651 
Q 3003 894 3003 1313 
Q 3003 1734 2745 1975 
Q 2488 2216 2034 2216 
z
M 1403 2484 
Q 997 2584 770 2862 
Q 544 3141 544 3541 
Q 544 4100 942 4425 
Q 1341 4750 2034 4750 
Q 2731 4750 3128 4425 
Q 3525 4100 3525 3541 
Q 3525 3141 3298 2862 
Q 3072 2584 2669 2484 
Q 3125 2378 3379 2068 
Q 3634 1759 3634 1313 
Q 3634 634 3220 271 
Q 2806 -91 2034 -91 
Q 1263 -91 848 271 
Q 434 634 434 1313 
Q 434 1759 690 2068 
Q 947 2378 1403 2484 
z
M 1172 3481 
Q 1172 3119 1398 2916 
Q 1625 2713 2034 2713 
Q 2441 2713 2670 2916 
Q 2900 3119 2900 3481 
Q 2900 3844 2670 4047 
Q 2441 4250 2034 4250 
Q 1625 4250 1398 4047 
Q 1172 3844 1172 3481 
z
" id="DejaVuSans-38" transform="scale(0.015625)"/>
       </defs>
       <use xlink:href="#DejaVuSans-38"/>
       <use x="63.623047" xlink:href="#DejaVuSans-30"/>
       <use x="127.246094" xlink:href="#DejaVuSans-30"/>
      </g>
     </g>
    </g>
    <g id="text_6">
     <!-- Χιλιάδες χρόνια πριν -->
     <g transform="translate(113.058797 330.259031)scale(0.15 -0.15)">
      <defs>
       <path d="M 403 4666 
L 1081 4666 
L 2241 2931 
L 3406 4666 
L 4084 4666 
L 2584 2425 
L 4184 0 
L 3506 0 
L 2194 1984 
L 872 0 
L 191 0 
L 1856 2491 
L 403 4666 
z
" id="DejaVuSans-3a7" transform="scale(0.015625)"/>
       <path d="M 1109 3500 
L 1109 1234 
Q 1109 781 1216 638 
Q 1328 488 1666 488 
L 1944 488 
L 1944 0 
L 1597 0 
Q 1034 0 778 300 
Q 522 606 522 1269 
L 519 3500 
L 1109 3500 
z
" id="DejaVuSans-3b9" transform="scale(0.015625)"/>
       <path d="M 1981 4316 
L 3597 0 
L 2988 0 
L 2006 2588 
L 800 0 
L 191 0 
L 1725 3356 
L 1494 3975 
Q 1347 4369 1013 4369 
L 713 4369 
L 713 4863 
L 1078 4856 
Q 1784 4847 1981 4316 
z
" id="DejaVuSans-3bb" transform="scale(0.015625)"/>
       <path d="M 2644 1628 
L 2506 2350 
Q 2366 3091 1809 3091 
Q 1391 3091 1200 2747 
Q 959 2316 959 1747 
Q 959 1059 1194 731 
Q 1431 397 1809 397 
Q 2228 397 2453 1063 
L 2644 1628 
z
M 2966 2584 
L 3275 3500 
L 3788 3500 
L 3147 1603 
L 3272 919 
Q 3300 766 3409 638 
Q 3538 488 3638 488 
L 3913 488 
L 3913 0 
L 3569 0 
Q 3275 0 3013 263 
Q 2884 394 2831 669 
Q 2688 322 2394 50 
Q 2256 -78 1809 -78 
Q 1075 -78 719 397 
Q 353 888 353 1747 
Q 353 2666 750 3097 
Q 1191 3578 1809 3578 
Q 2781 3578 2966 2584 
z
M 2378 5119 
L 3000 5119 
L 1982 3944 
L 1503 3944 
L 2378 5119 
z
" id="DejaVuSans-3ac" transform="scale(0.015625)"/>
       <path d="M 3138 4053 
Q 2819 4272 2072 4272 
Q 1281 4272 1281 3906 
Q 1281 3619 2106 3469 
Q 2756 3353 3122 3003 
Q 3566 2581 3566 1716 
Q 3566 888 3138 400 
Q 2709 -91 1959 -91 
Q 1213 -91 781 400 
Q 353 888 353 1747 
Q 353 2384 781 2900 
Q 947 3100 1181 3213 
Q 694 3459 694 3900 
Q 694 4750 2072 4750 
Q 2763 4750 3138 4531 
L 3138 4053 
z
M 1613 3056 
Q 1400 2966 1228 2738 
Q 959 2384 959 1747 
Q 959 1113 1225 756 
Q 1494 397 1959 397 
Q 2419 397 2687 759 
Q 2956 1122 2956 1716 
Q 2956 2338 2672 2638 
Q 2369 2959 1975 2994 
Q 1775 3013 1613 3056 
z
" id="DejaVuSans-3b4" transform="scale(0.015625)"/>
       <path d="M 1234 1888 
Q 884 1963 697 2166 
Q 509 2366 509 2656 
Q 509 3097 866 3344 
Q 1219 3588 1831 3588 
Q 2069 3588 2334 3550 
Q 2600 3513 2906 3438 
L 2906 2916 
Q 2603 3006 2353 3047 
Q 2100 3088 1878 3088 
Q 1506 3088 1291 2944 
Q 1072 2800 1072 2600 
Q 1072 2381 1284 2241 
Q 1494 2103 1856 2103 
L 2341 2103 
L 2341 1628 
L 1878 1628 
Q 1450 1628 1225 1469 
Q 981 1294 981 1019 
Q 981 738 1244 563 
Q 1509 388 1981 388 
Q 2272 388 2538 444 
Q 2803 503 3025 619 
L 3025 84 
Q 2744 -3 2481 -47 
Q 2216 -91 1966 -91 
Q 1222 -91 819 194 
Q 416 478 416 1019 
Q 416 1356 631 1584 
Q 847 1813 1234 1888 
z
" id="DejaVuSans-3b5" transform="scale(0.015625)"/>
       <path d="M 2125 -91 
Q 1284 -91 818 406 
Q 353 903 353 1747 
Q 353 2603 823 3093 
Q 1294 3584 2113 3584 
Q 2378 3584 2631 3529 
Q 2884 3475 3122 3366 
L 3122 2828 
Q 2878 2963 2633 3030 
Q 2388 3097 2138 3097 
Q 1578 3097 1268 2742 
Q 959 2388 959 1747 
Q 959 1106 1268 751 
Q 1578 397 2125 397 
Q 2534 397 2784 159 
Q 3047 -88 3047 -463 
Q 3047 -822 2816 -1072 
Q 2566 -1344 2056 -1344 
Q 2056 -1109 2056 -872 
Q 2272 -888 2403 -750 
Q 2503 -641 2503 -525 
Q 2503 -359 2403 -222 
Q 2306 -91 2125 -91 
z
" id="DejaVuSans-3c2" transform="scale(0.015625)"/>
       <path id="DejaVuSans-20" transform="scale(0.015625)"/>
       <path d="M 2288 -781 
L 1822 416 
L 863 -1334 
L 184 -1334 
L 1541 1141 
L 972 2613 
Q 819 3006 338 3006 
L 184 3006 
L 184 3500 
L 403 3494 
Q 1209 3472 1413 2950 
L 1875 1753 
L 2834 3503 
L 3513 3503 
L 2156 1028 
L 2725 -444 
Q 2878 -838 3359 -838 
L 3513 -838 
L 3513 -1331 
L 3294 -1325 
Q 2488 -1303 2288 -781 
z
" id="DejaVuSans-3c7" transform="scale(0.015625)"/>
       <path d="M 863 2875 
Q 1053 3194 1525 3475 
Q 1709 3584 2278 3584 
Q 2916 3584 3314 3078 
Q 3713 2572 3713 1747 
Q 3713 922 3314 415 
Q 2916 -91 2278 -91 
Q 1894 -91 1617 61 
Q 1341 213 1159 525 
L 1159 -1331 
L 581 -1331 
L 581 1716 
Q 581 2438 863 2875 
z
M 3116 1747 
Q 3116 2381 2855 2742 
Q 2594 3103 2138 3103 
Q 1681 3103 1420 2742 
Q 1159 2381 1159 1747 
Q 1159 1113 1420 752 
Q 1681 391 2138 391 
Q 2594 391 2855 752 
Q 3116 1113 3116 1747 
z
" id="DejaVuSans-3c1" transform="scale(0.015625)"/>
       <path d="M 2426 5119 
L 3048 5119 
L 2030 3944 
L 1551 3944 
L 2426 5119 
z
M 1959 3097 
Q 1497 3097 1228 2736 
Q 959 2375 959 1747 
Q 959 1119 1226 758 
Q 1494 397 1959 397 
Q 2419 397 2687 759 
Q 2956 1122 2956 1747 
Q 2956 2369 2687 2733 
Q 2419 3097 1959 3097 
z
M 1959 3584 
Q 2709 3584 3137 3096 
Q 3566 2609 3566 1747 
Q 3566 888 3137 398 
Q 2709 -91 1959 -91 
Q 1206 -91 779 398 
Q 353 888 353 1747 
Q 353 2609 779 3096 
Q 1206 3584 1959 3584 
z
" id="DejaVuSans-3cc" transform="scale(0.015625)"/>
       <path d="M 1300 0 
L 231 3500 
L 850 3500 
L 1753 563 
Q 2128 950 2441 1488 
Q 2678 1891 2691 2241 
Q 2697 2406 2622 2719 
Q 2534 3091 2203 3500 
L 2784 3500 
L 2784 3500 
Q 3000 3222 3144 2834 
Q 3275 2478 3275 2234 
Q 3275 1622 2850 1075 
Q 2297 363 1913 0 
L 1300 0 
z
" id="DejaVuSans-3bd" transform="scale(0.015625)"/>
       <path d="M 2644 1628 
L 2506 2350 
Q 2366 3091 1809 3091 
Q 1391 3091 1200 2747 
Q 959 2316 959 1747 
Q 959 1059 1194 731 
Q 1431 397 1809 397 
Q 2228 397 2453 1063 
L 2644 1628 
z
M 2966 2584 
L 3275 3500 
L 3788 3500 
L 3147 1603 
L 3272 919 
Q 3300 766 3409 638 
Q 3538 488 3638 488 
L 3913 488 
L 3913 0 
L 3569 0 
Q 3275 0 3013 263 
Q 2884 394 2831 669 
Q 2688 322 2394 50 
Q 2256 -78 1809 -78 
Q 1075 -78 719 397 
Q 353 888 353 1747 
Q 353 2666 750 3097 
Q 1191 3578 1809 3578 
Q 2781 3578 2966 2584 
z
" id="DejaVuSans-3b1" transform="scale(0.015625)"/>
       <path d="M 231 3500 
L 3584 3500 
L 3584 2925 
L 3144 2925 
L 3144 775 
Q 3144 550 3220 451 
Q 3297 353 3469 353 
Q 3516 353 3584 361 
Q 3653 369 3675 372 
L 3675 -44 
Q 3566 -84 3450 -103 
Q 3334 -122 3219 -122 
Q 2844 -122 2700 83 
Q 2556 288 2556 838 
L 2556 2925 
L 1266 2925 
L 1266 0 
L 678 0 
L 678 2925 
L 231 2925 
L 231 3500 
z
" id="DejaVuSans-3c0" transform="scale(0.015625)"/>
      </defs>
      <use xlink:href="#DejaVuSans-3a7"/>
      <use x="68.505859" xlink:href="#DejaVuSans-3b9"/>
      <use x="102.34375" xlink:href="#DejaVuSans-3bb"/>
      <use x="161.523438" xlink:href="#DejaVuSans-3b9"/>
      <use x="195.361328" xlink:href="#DejaVuSans-3ac"/>
      <use x="261.279297" xlink:href="#DejaVuSans-3b4"/>
      <use x="322.460938" xlink:href="#DejaVuSans-3b5"/>
      <use x="376.513672" xlink:href="#DejaVuSans-3c2"/>
      <use x="435.205078" xlink:href="#DejaVuSans-20"/>
      <use x="466.992188" xlink:href="#DejaVuSans-3c7"/>
      <use x="524.755859" xlink:href="#DejaVuSans-3c1"/>
      <use x="588.232422" xlink:href="#DejaVuSans-3cc"/>
      <use x="649.414062" xlink:href="#DejaVuSans-3bd"/>
      <use x="705.273438" xlink:href="#DejaVuSans-3b9"/>
      <use x="739.111328" xlink:href="#DejaVuSans-3b1"/>
      <use x="805.029297" xlink:href="#DejaVuSans-20"/>
      <use x="836.816406" xlink:href="#DejaVuSans-3c0"/>
      <use x="897.021484" xlink:href="#DejaVuSans-3c1"/>
      <use x="960.498047" xlink:href="#DejaVuSans-3b9"/>
      <use x="994.335938" xlink:href="#DejaVuSans-3bd"/>
     </g>
    </g>
   </g>
   <g id="matplotlib.axis_2">
    <g id="ytick_1">
     <g id="line2d_6">
      <defs>
       <path d="M 0 0 
L 3.5 0 
" id="m788372da65" style="stroke:#000000;stroke-width:0.8;"/>
      </defs>
      <g>
       <use style="stroke:#000000;stroke-width:0.8;" x="370.386375" xlink:href="#m788372da65" y="252.377844"/>
      </g>
     </g>
     <g id="text_7">
      <!-- 200 -->
      <g transform="translate(377.386375 257.696751)scale(0.14 -0.14)">
       <use xlink:href="#DejaVuSans-32"/>
       <use x="63.623047" xlink:href="#DejaVuSans-30"/>
       <use x="127.246094" xlink:href="#DejaVuSans-30"/>
      </g>
     </g>
    </g>
    <g id="ytick_2">
     <g id="line2d_7">
      <g>
       <use style="stroke:#000000;stroke-width:0.8;" x="370.386375" xlink:href="#m788372da65" y="200.902218"/>
      </g>
     </g>
     <g id="text_8">
      <!-- 250 -->
      <g transform="translate(377.386375 206.221125)scale(0.14 -0.14)">
       <defs>
        <path d="M 691 4666 
L 3169 4666 
L 3169 4134 
L 1269 4134 
L 1269 2991 
Q 1406 3038 1543 3061 
Q 1681 3084 1819 3084 
Q 2600 3084 3056 2656 
Q 3513 2228 3513 1497 
Q 3513 744 3044 326 
Q 2575 -91 1722 -91 
Q 1428 -91 1123 -41 
Q 819 9 494 109 
L 494 744 
Q 775 591 1075 516 
Q 1375 441 1709 441 
Q 2250 441 2565 725 
Q 2881 1009 2881 1497 
Q 2881 1984 2565 2268 
Q 2250 2553 1709 2553 
Q 1456 2553 1204 2497 
Q 953 2441 691 2322 
L 691 4666 
z
" id="DejaVuSans-35" transform="scale(0.015625)"/>
       </defs>
       <use xlink:href="#DejaVuSans-32"/>
       <use x="63.623047" xlink:href="#DejaVuSans-35"/>
       <use x="127.246094" xlink:href="#DejaVuSans-30"/>
      </g>
     </g>
    </g>
    <g id="ytick_3">
     <g id="line2d_8">
      <g>
       <use style="stroke:#000000;stroke-width:0.8;" x="370.386375" xlink:href="#m788372da65" y="149.426592"/>
      </g>
     </g>
     <g id="text_9">
      <!-- 300 -->
      <g transform="translate(377.386375 154.745498)scale(0.14 -0.14)">
       <defs>
        <path d="M 2597 2516 
Q 3050 2419 3304 2112 
Q 3559 1806 3559 1356 
Q 3559 666 3084 287 
Q 2609 -91 1734 -91 
Q 1441 -91 1130 -33 
Q 819 25 488 141 
L 488 750 
Q 750 597 1062 519 
Q 1375 441 1716 441 
Q 2309 441 2620 675 
Q 2931 909 2931 1356 
Q 2931 1769 2642 2001 
Q 2353 2234 1838 2234 
L 1294 2234 
L 1294 2753 
L 1863 2753 
Q 2328 2753 2575 2939 
Q 2822 3125 2822 3475 
Q 2822 3834 2567 4026 
Q 2313 4219 1838 4219 
Q 1578 4219 1281 4162 
Q 984 4106 628 3988 
L 628 4550 
Q 988 4650 1302 4700 
Q 1616 4750 1894 4750 
Q 2613 4750 3031 4423 
Q 3450 4097 3450 3541 
Q 3450 3153 3228 2886 
Q 3006 2619 2597 2516 
z
" id="DejaVuSans-33" transform="scale(0.015625)"/>
       </defs>
       <use xlink:href="#DejaVuSans-33"/>
       <use x="63.623047" xlink:href="#DejaVuSans-30"/>
       <use x="127.246094" xlink:href="#DejaVuSans-30"/>
      </g>
     </g>
    </g>
    <g id="ytick_4">
     <g id="line2d_9">
      <g>
       <use style="stroke:#000000;stroke-width:0.8;" x="370.386375" xlink:href="#m788372da65" y="97.950966"/>
      </g>
     </g>
     <g id="text_10">
      <!-- 350 -->
      <g transform="translate(377.386375 103.269872)scale(0.14 -0.14)">
       <use xlink:href="#DejaVuSans-33"/>
       <use x="63.623047" xlink:href="#DejaVuSans-35"/>
       <use x="127.246094" xlink:href="#DejaVuSans-30"/>
      </g>
     </g>
    </g>
    <g id="ytick_5">
     <g id="line2d_10">
      <g>
       <use style="stroke:#000000;stroke-width:0.8;" x="370.386375" xlink:href="#m788372da65" y="46.47534"/>
      </g>
     </g>
     <g id="text_11">
      <!-- 400 -->
      <g transform="translate(377.386375 51.794246)scale(0.14 -0.14)">
       <use xlink:href="#DejaVuSans-34"/>
       <use x="63.623047" xlink:href="#DejaVuSans-30"/>
       <use x="127.246094" xlink:href="#DejaVuSans-30"/>
      </g>
     </g>
    </g>
    <g id="text_12">
     <!-- Συγκέντρωση CO$_2$ (ppmv) -->
     <g transform="translate(420.108875 258.606)rotate(-90)scale(0.15 -0.15)">
      <defs>
       <path d="M 1353 531 
L 3634 531 
L 3634 0 
L 628 0 
L 628 531 
L 2125 2481 
L 628 4134 
L 628 4666 
L 3578 4666 
L 3578 4134 
L 1353 4134 
L 2850 2494 
L 1353 531 
z
" id="DejaVuSans-3a3" transform="scale(0.015625)"/>
       <path d="M 1056 3500 
L 1056 1234 
Q 1056 813 1213 613 
Q 1384 397 1719 397 
Q 2188 397 2516 1047 
Q 2700 1416 2747 2000 
Q 2772 2319 2678 2719 
Q 2591 3091 2259 3500 
L 2841 3500 
L 2841 3500 
Q 3059 3219 3200 2834 
Q 3331 2475 3331 1994 
Q 3331 1203 2931 619 
Q 2444 -94 1650 -91 
Q 1091 -91 775 284 
Q 469 653 469 1269 
L 466 3500 
L 1056 3500 
z
" id="DejaVuSans-3c5" transform="scale(0.015625)"/>
       <path d="M 1128 2950 
L 1894 788 
L 2988 3500 
L 3597 3500 
L 2181 0 
L 2181 -1331 
L 1606 -1331 
L 1606 0 
L 688 2613 
Q 550 3006 253 3006 
L 100 3006 
L 100 3500 
L 319 3500 
Q 934 3500 1128 2950 
z
" id="DejaVuSans-3b3" transform="scale(0.015625)"/>
       <path d="M 597 3500 
L 1191 3500 
L 1191 2047 
L 2700 3500 
L 3400 3500 
L 2022 2181 
L 3616 0 
L 2913 0 
L 1619 1806 
L 1191 1403 
L 1191 0 
L 597 0 
L 597 3500 
z
" id="DejaVuSans-3ba" transform="scale(0.015625)"/>
       <path d="M 2282 5119 
L 2904 5119 
L 1886 3944 
L 1407 3944 
L 2282 5119 
z
M 1234 1888 
Q 884 1963 697 2166 
Q 509 2366 509 2656 
Q 509 3097 866 3344 
Q 1219 3588 1831 3588 
Q 2069 3588 2334 3550 
Q 2600 3513 2906 3438 
L 2906 2916 
Q 2603 3006 2353 3047 
Q 2100 3088 1878 3088 
Q 1506 3088 1291 2944 
Q 1072 2800 1072 2600 
Q 1072 2381 1284 2241 
Q 1494 2103 1856 2103 
L 2341 2103 
L 2341 1628 
L 1878 1628 
Q 1450 1628 1225 1469 
Q 981 1294 981 1019 
Q 981 738 1244 563 
Q 1509 388 1981 388 
Q 2272 388 2538 444 
Q 2803 503 3025 619 
L 3025 84 
Q 2744 -3 2481 -47 
Q 2216 -91 1966 -91 
Q 1222 -91 819 194 
Q 416 478 416 1019 
Q 416 1356 631 1584 
Q 847 1813 1234 1888 
z
" id="DejaVuSans-3ad" transform="scale(0.015625)"/>
       <path d="M 2319 638 
Q 2431 488 2769 488 
L 3047 488 
L 3047 0 
L 2700 0 
Q 2138 0 1881 300 
Q 1625 606 1625 1269 
L 1625 2925 
L 313 2925 
L 313 3500 
L 3541 3500 
L 3541 2925 
L 2213 2925 
L 2213 1234 
Q 2213 781 2319 638 
z
" id="DejaVuSans-3c4" transform="scale(0.015625)"/>
       <path d="M 1719 -91 
Q 422 -91 422 1766 
Q 422 2500 906 3500 
L 1525 3500 
Q 1078 2500 1078 1750 
Q 1078 397 1772 397 
Q 2406 397 2406 2078 
L 2938 2078 
Q 2938 397 3572 397 
Q 4266 397 4266 1750 
Q 4266 2500 3819 3500 
L 4438 3500 
Q 4922 2500 4922 1766 
Q 4922 -91 3625 -91 
Q 2775 -91 2672 844 
Q 2544 -91 1719 -91 
z
" id="DejaVuSans-3c9" transform="scale(0.015625)"/>
       <path d="M 1959 3044 
Q 1484 3044 1228 2700 
Q 959 2341 959 1747 
Q 959 1119 1226 758 
Q 1494 397 1959 397 
Q 2419 397 2687 759 
Q 2956 1122 2956 1747 
Q 2956 2319 2688 2700 
Q 2441 3044 1959 3044 
z
M 1959 3500 
L 3869 3500 
L 3869 2925 
L 3225 2925 
Q 3566 2438 3566 1747 
Q 3566 888 3138 400 
Q 2709 -91 1959 -91 
Q 1206 -91 781 400 
Q 353 888 353 1747 
Q 353 2613 781 3097 
Q 1134 3500 1959 3500 
z
" id="DejaVuSans-3c3" transform="scale(0.015625)"/>
       <path d="M 3513 2113 
L 3513 -1331 
L 2938 -1331 
L 2938 2094 
Q 2938 2591 2744 2837 
Q 2550 3084 2163 3084 
Q 1697 3084 1428 2787 
Q 1159 2491 1159 1978 
L 1159 0 
L 581 0 
L 581 3500 
L 1159 3500 
L 1159 2956 
Q 1366 3272 1644 3428 
Q 1925 3584 2291 3584 
Q 2894 3584 3203 3213 
Q 3513 2838 3513 2113 
z
" id="DejaVuSans-3b7" transform="scale(0.015625)"/>
       <path d="M 4122 4306 
L 4122 3641 
Q 3803 3938 3442 4084 
Q 3081 4231 2675 4231 
Q 1875 4231 1450 3742 
Q 1025 3253 1025 2328 
Q 1025 1406 1450 917 
Q 1875 428 2675 428 
Q 3081 428 3442 575 
Q 3803 722 4122 1019 
L 4122 359 
Q 3791 134 3420 21 
Q 3050 -91 2638 -91 
Q 1578 -91 968 557 
Q 359 1206 359 2328 
Q 359 3453 968 4101 
Q 1578 4750 2638 4750 
Q 3056 4750 3426 4639 
Q 3797 4528 4122 4306 
z
" id="DejaVuSans-43" transform="scale(0.015625)"/>
       <path d="M 2522 4238 
Q 1834 4238 1429 3725 
Q 1025 3213 1025 2328 
Q 1025 1447 1429 934 
Q 1834 422 2522 422 
Q 3209 422 3611 934 
Q 4013 1447 4013 2328 
Q 4013 3213 3611 3725 
Q 3209 4238 2522 4238 
z
M 2522 4750 
Q 3503 4750 4090 4092 
Q 4678 3434 4678 2328 
Q 4678 1225 4090 567 
Q 3503 -91 2522 -91 
Q 1538 -91 948 565 
Q 359 1222 359 2328 
Q 359 3434 948 4092 
Q 1538 4750 2522 4750 
z
" id="DejaVuSans-4f" transform="scale(0.015625)"/>
       <path d="M 1984 4856 
Q 1566 4138 1362 3434 
Q 1159 2731 1159 2009 
Q 1159 1288 1364 580 
Q 1569 -128 1984 -844 
L 1484 -844 
Q 1016 -109 783 600 
Q 550 1309 550 2009 
Q 550 2706 781 3412 
Q 1013 4119 1484 4856 
L 1984 4856 
z
" id="DejaVuSans-28" transform="scale(0.015625)"/>
       <path d="M 1159 525 
L 1159 -1331 
L 581 -1331 
L 581 3500 
L 1159 3500 
L 1159 2969 
Q 1341 3281 1617 3432 
Q 1894 3584 2278 3584 
Q 2916 3584 3314 3078 
Q 3713 2572 3713 1747 
Q 3713 922 3314 415 
Q 2916 -91 2278 -91 
Q 1894 -91 1617 61 
Q 1341 213 1159 525 
z
M 3116 1747 
Q 3116 2381 2855 2742 
Q 2594 3103 2138 3103 
Q 1681 3103 1420 2742 
Q 1159 2381 1159 1747 
Q 1159 1113 1420 752 
Q 1681 391 2138 391 
Q 2594 391 2855 752 
Q 3116 1113 3116 1747 
z
" id="DejaVuSans-70" transform="scale(0.015625)"/>
       <path d="M 3328 2828 
Q 3544 3216 3844 3400 
Q 4144 3584 4550 3584 
Q 5097 3584 5394 3201 
Q 5691 2819 5691 2113 
L 5691 0 
L 5113 0 
L 5113 2094 
Q 5113 2597 4934 2840 
Q 4756 3084 4391 3084 
Q 3944 3084 3684 2787 
Q 3425 2491 3425 1978 
L 3425 0 
L 2847 0 
L 2847 2094 
Q 2847 2600 2669 2842 
Q 2491 3084 2119 3084 
Q 1678 3084 1418 2786 
Q 1159 2488 1159 1978 
L 1159 0 
L 581 0 
L 581 3500 
L 1159 3500 
L 1159 2956 
Q 1356 3278 1631 3431 
Q 1906 3584 2284 3584 
Q 2666 3584 2933 3390 
Q 3200 3197 3328 2828 
z
" id="DejaVuSans-6d" transform="scale(0.015625)"/>
       <path d="M 191 3500 
L 800 3500 
L 1894 563 
L 2988 3500 
L 3597 3500 
L 2284 0 
L 1503 0 
L 191 3500 
z
" id="DejaVuSans-76" transform="scale(0.015625)"/>
       <path d="M 513 4856 
L 1013 4856 
Q 1481 4119 1714 3412 
Q 1947 2706 1947 2009 
Q 1947 1309 1714 600 
Q 1481 -109 1013 -844 
L 513 -844 
Q 928 -128 1133 580 
Q 1338 1288 1338 2009 
Q 1338 2731 1133 3434 
Q 928 4138 513 4856 
z
" id="DejaVuSans-29" transform="scale(0.015625)"/>
      </defs>
      <use transform="translate(0 0.015625)" xlink:href="#DejaVuSans-3a3"/>
      <use transform="translate(63.183594 0.015625)" xlink:href="#DejaVuSans-3c5"/>
      <use transform="translate(121.044922 0.015625)" xlink:href="#DejaVuSans-3b3"/>
      <use transform="translate(180.224609 0.015625)" xlink:href="#DejaVuSans-3ba"/>
      <use transform="translate(239.160156 0.015625)" xlink:href="#DejaVuSans-3ad"/>
      <use transform="translate(293.212891 0.015625)" xlink:href="#DejaVuSans-3bd"/>
      <use transform="translate(349.072266 0.015625)" xlink:href="#DejaVuSans-3c4"/>
      <use transform="translate(409.277344 0.015625)" xlink:href="#DejaVuSans-3c1"/>
      <use transform="translate(472.753906 0.015625)" xlink:href="#DejaVuSans-3c9"/>
      <use transform="translate(556.494141 0.015625)" xlink:href="#DejaVuSans-3c3"/>
      <use transform="translate(619.873047 0.015625)" xlink:href="#DejaVuSans-3b7"/>
      <use transform="translate(683.251953 0.015625)" xlink:href="#DejaVuSans-20"/>
      <use transform="translate(715.039062 0.015625)" xlink:href="#DejaVuSans-43"/>
      <use transform="translate(784.863281 0.015625)" xlink:href="#DejaVuSans-4f"/>
      <use transform="translate(864.53125 -16.390625)scale(0.7)" xlink:href="#DejaVuSans-32"/>
      <use transform="translate(911.801758 0.015625)" xlink:href="#DejaVuSans-20"/>
      <use transform="translate(943.588867 0.015625)" xlink:href="#DejaVuSans-28"/>
      <use transform="translate(982.602539 0.015625)" xlink:href="#DejaVuSans-70"/>
      <use transform="translate(1046.079102 0.015625)" xlink:href="#DejaVuSans-70"/>
      <use transform="translate(1109.555664 0.015625)" xlink:href="#DejaVuSans-6d"/>
      <use transform="translate(1206.967773 0.015625)" xlink:href="#DejaVuSans-76"/>
      <use transform="translate(1266.147461 0.015625)" xlink:href="#DejaVuSans-29"/>
     </g>
    </g>
   </g>
   <g id="line2d_11">
    <path clip-path="url(#pa1e51e0c2b)" d="M 353.768262 132.974124 
L 353.767856 132.017535 
L 353.76745 131.260844 
L 353.767044 130.427796 
L 353.766638 129.873576 
L 353.766232 129.230988 
L 353.765826 128.799451 
L 353.76542 127.426767 
L 353.765014 126.591146 
L 353.764607 125.697186 
L 353.764201 124.07742 
L 353.763795 122.985279 
L 353.763389 122.331538 
L 353.762983 121.158752 
L 353.762577 118.873234 
L 353.762171 118.289844 
L 353.761765 117.354703 
L 353.761359 116.326049 
L 353.760953 114.52526 
L 353.760546 112.874608 
L 353.76014 111.488198 
L 353.759734 109.5999 
L 353.759328 108.313868 
L 353.758922 107.081026 
L 353.758516 105.383189 
L 353.75811 103.69393 
L 353.757704 102.168536 
L 353.757298 100.882503 
L 353.756892 99.049113 
L 353.756485 96.422998 
L 353.756079 94.9568 
L 353.755673 93.641598 
L 353.755267 92.194275 
L 353.754861 91.38954 
L 353.754455 90.703198 
L 353.754049 88.802889 
L 353.753643 86.752444 
L 353.753237 84.937928 
L 353.752831 83.781442 
L 353.752425 80.830173 
L 353.752018 79.098018 
L 353.751612 77.90121 
L 353.751206 76.311471 
L 353.7508 74.172659 
L 353.750394 71.556839 
L 353.749988 69.780072 
L 353.749582 67.474822 
L 353.749176 65.203889 
L 353.74877 63.366209 
L 353.748364 61.455605 
L 353.747957 59.489236 
L 353.747551 56.873416 
L 353.747145 55.072627 
L 353.746739 52.786252 
L 353.746333 50.01 
L 353.745927 47.902931 
L 353.745521 45.564221 
L 353.745115 42.0716 
L 353.744709 39.696 
" style="fill:none;stroke:#000000;stroke-linecap:square;stroke-width:1.5;"/>
   </g>
   <g id="line2d_12">
    <path clip-path="url(#pa1e51e0c2b)" d="M 354.153648 171.046355 
L 354.145526 171.046355 
L 354.082581 165.898793 
L 354.027758 166.928305 
L 354.023697 166.928305 
L 353.899838 175.164405 
L 353.761765 119.570729 
L 353.761765 119.570729 
" style="fill:none;stroke:#2ca02c;stroke-linecap:square;stroke-width:2;"/>
   </g>
   <g id="line2d_13">
    <path clip-path="url(#pa1e51e0c2b)" d="M 346.094259 262.158213 
L 344.021138 263.702482 
L 343.482654 265.040848 
L 342.601425 257.319504 
L 342.490154 258.451968 
L 342.187206 256.392943 
L 341.898472 258.55492 
L 341.681616 261.540506 
L 341.423745 259.069676 
L 341.057852 252.789649 
L 340.898663 253.304406 
L 340.740285 251.966039 
L 340.305356 252.274893 
L 340.232258 250.730624 
L 340.135201 251.451283 
L 339.816822 246.921428 
L 339.127676 243.318134 
L 338.998944 238.994182 
L 338.870211 240.744353 
L 338.793865 239.405987 
L 338.525029 238.376474 
L 338.360966 242.18567 
L 338.279747 241.465012 
L 338.064516 241.773865 
L 337.720146 256.084089 
L 337.35466 254.230967 
L 337.18816 250.936527 
L 337.126027 253.510308 
L 336.75851 250.730624 
L 336.662671 250.112917 
L 336.576985 250.421771 
L 336.207437 252.480796 
L 336.061243 250.627673 
L 335.61941 235.699742 
L 335.49352 237.346962 
L 335.407428 236.214498 
L 335.156866 245.583062 
L 334.614321 253.304406 
L 334.313404 250.215868 
L 334.081117 245.274208 
L 333.830962 245.274208 
L 333.090242 237.655815 
L 332.911966 233.846619 
L 332.403939 234.979083 
L 331.992969 240.332548 
L 331.74119 241.259109 
L 331.415094 244.141744 
L 330.430717 233.640716 
L 329.856497 231.375789 
L 329.619742 236.935157 
L 329.42441 237.038108 
L 329.231108 239.508938 
L 328.902982 247.642087 
L 328.288965 255.054577 
L 328.104597 248.671599 
L 328.104597 248.671599 
" style="fill:none;stroke:#ff7f0e;stroke-linecap:square;"/>
   </g>
   <g id="line2d_14">
    <path clip-path="url(#pa1e51e0c2b)" d="M 352.679518 165.178134 
L 352.097176 182.268042 
L 351.036858 188.342165 
L 350.574721 196.269412 
L 350.251062 191.018898 
L 349.643135 188.959873 
L 349.311761 186.797897 
L 349.133485 206.255683 
L 348.947086 212.947515 
L 348.348094 215.109491 
L 348.082507 226.434129 
L 345.64065 270.703167 
L 344.501956 263.49658 
L 343.215848 261.02575 
L 341.969539 264.217238 
L 341.580904 260.922798 
L 339.55489 246.921428 
L 338.555081 243.00928 
L 336.106726 243.00928 
L 334.54894 263.393628 
L 333.932486 264.32019 
L 333.592989 241.979768 
L 333.197857 236.214498 
L 332.499778 262.261165 
L 330.588688 230.037423 
L 330.357619 241.670914 
L 328.245106 257.216553 
L 327.400426 261.231652 
L 326.994329 257.628358 
L 324.919177 224.272153 
L 324.034699 222.41903 
L 322.441583 234.77318 
L 322.022086 230.037423 
L 321.034865 220.565907 
L 320.302674 210.06488 
L 319.930689 214.903589 
L 319.245605 237.758767 
L 318.774127 234.876131 
L 318.069144 244.141744 
L 317.078269 227.463641 
L 316.716031 223.24264 
L 315.455508 219.433444 
L 313.223602 225.816421 
L 312.822379 220.668859 
L 312.452019 214.388832 
L 311.755157 223.448543 
L 311.252004 214.388832 
L 310.873522 220.874761 
L 310.084477 213.050466 
L 309.851378 205.432073 
L 309.180913 199.666803 
L 308.345166 194.004484 
L 307.776631 184.121164 
L 307.437947 189.165776 
L 307.232868 175.679161 
L 307.022917 177.017528 
L 306.461285 188.033312 
L 305.954071 182.782798 
L 305.58899 176.502771 
L 305.173554 178.355894 
L 304.885225 185.253628 
L 304.627354 172.487673 
L 304.088464 178.149992 
L 303.793638 173.723088 
L 303.095559 184.121164 
L 302.976979 170.325696 
L 302.903475 177.22343 
L 302.833627 173.002429 
L 302.462861 176.502771 
L 302.243975 188.033312 
L 302.144075 187.93036 
L 301.82935 174.546698 
L 301.651886 176.193918 
L 301.640516 162.707304 
L 301.544271 163.016157 
L 301.439904 167.34011 
L 301.247414 187.10675 
L 301.120712 192.769069 
L 301.0866 191.636606 
L 300.439689 206.049781 
L 300.277656 222.624932 
L 299.967399 228.1843 
L 299.733081 227.772495 
L 299.587698 241.465012 
L 299.305055 243.215183 
L 299.238456 248.568648 
L 298.965153 247.745038 
L 298.864847 254.436869 
L 298.704033 254.436869 
L 298.590326 250.627673 
L 298.538345 251.657186 
L 298.440882 249.907014 
L 298.312556 256.701797 
L 298.276819 251.245381 
L 297.879657 259.172627 
L 297.73793 258.349017 
L 297.655492 262.467067 
L 297.212847 260.305091 
L 297.073962 255.981138 
L 296.553346 256.907699 
L 296.528575 256.084089 
L 296.082681 262.261165 
L 294.740532 255.569333 
L 293.33219 249.289307 
L 292.889545 263.805433 
L 292.279588 251.760137 
L 290.666574 267.305776 
L 288.97437 247.950941 
L 288.819647 255.981138 
L 287.891717 262.570018 
L 287.294756 269.055947 
L 286.993838 255.878187 
L 285.87951 254.642772 
L 284.941833 254.745723 
L 284.1869 256.495894 
L 283.747098 262.364116 
L 283.462424 263.290677 
L 283.357245 262.570018 
L 282.580789 244.450598 
L 281.836414 238.788279 
L 281.414074 234.155473 
L 281.033156 254.333918 
L 279.8437 248.877502 
L 278.772011 241.36206 
L 277.954945 220.154102 
L 277.248744 220.051151 
L 276.988842 231.47874 
L 276.470663 233.846619 
L 275.431869 225.095763 
L 275.199988 231.787594 
L 274.576224 225.198714 
L 274.309825 209.961928 
L 272.970113 199.975657 
L 272.585945 212.123905 
L 272.080356 203.373048 
L 271.572735 206.667488 
L 271.385525 219.536395 
L 271.205624 219.227541 
L 270.994454 222.933786 
L 270.733334 225.301665 
L 270.13556 213.153417 
L 270.05759 214.079979 
L 269.787129 221.492469 
L 269.66124 210.682587 
L 269.277885 206.461586 
L 269.200726 207.182245 
L 268.977779 203.784853 
L 268.899809 198.843193 
L 268.565998 211.7121 
L 268.429143 193.283826 
L 268.161526 207.697001 
L 267.737155 199.666803 
L 267.388724 209.756026 
L 267.163747 210.88849 
L 266.680898 199.152047 
L 266.544856 199.769754 
L 266.306071 205.740927 
L 265.912158 210.682587 
L 265.09631 237.861718 
L 264.789708 235.802693 
L 264.407165 245.068305 
L 264.130613 243.318134 
L 263.606343 246.612574 
L 262.697093 248.980453 
L 262.031095 215.83015 
L 261.705406 216.859662 
L 261.577079 218.30098 
L 261.272913 227.154788 
L 260.604072 219.021639 
L 260.198382 217.47737 
L 259.936856 209.550123 
L 258.413589 205.843878 
L 258.144347 198.740242 
L 257.886882 209.756026 
L 257.635102 203.578951 
L 257.174589 212.123905 
L 256.894382 205.432073 
L 256.709608 205.226171 
L 256.52118 203.578951 
L 256.319756 198.019583 
L 255.754064 187.312653 
L 255.493756 171.046355 
L 255.356089 169.81094 
L 254.54349 214.594735 
L 254.333539 221.080664 
L 254.099221 232.405301 
L 253.189565 237.24401 
L 252.193817 252.171942 
L 251.839701 238.06762 
L 251.490864 257.113602 
L 251.13553 255.775236 
L 250.771261 257.113602 
L 250.01511 253.407357 
L 249.364544 248.259794 
L 248.730627 248.362746 
L 248.043512 242.494524 
L 247.81488 246.509623 
L 247.337311 243.215183 
L 246.997002 237.346962 
L 246.355776 223.448543 
L 245.891201 252.480796 
L 245.617899 240.332548 
L 245.164695 264.011336 
L 244.86459 265.555605 
L 244.469458 258.349017 
L 244.035747 253.613259 
L 243.615844 268.129386 
L 243.187412 262.261165 
L 242.781722 258.657871 
L 242.371158 258.451968 
L 241.953285 254.025064 
L 241.556935 259.37853 
L 241.136625 250.112917 
L 240.734996 247.745038 
L 240.341082 241.053207 
L 239.955697 236.626303 
L 239.35102 227.978398 
L 238.527862 220.154102 
L 237.576378 225.198714 
L 237.207643 220.051151 
L 237.003783 221.080664 
L 236.721546 220.462956 
L 235.941841 216.447857 
L 235.707523 231.375789 
L 235.44884 234.77318 
L 235.027312 244.553549 
L 234.762537 246.200769 
L 234.469335 245.48011 
L 234.148925 239.303035 
L 233.595822 238.89123 
L 232.787284 234.77318 
L 232.09692 220.462956 
L 231.751332 215.212442 
L 231.373663 212.226856 
L 231.01711 215.315394 
L 230.632943 210.991441 
L 230.22441 210.476685 
L 229.952732 200.696316 
L 229.646535 202.343536 
L 229.284297 206.255683 
L 228.899318 225.816421 
L 228.392103 223.757396 
L 228.130171 225.404616 
L 227.813822 218.198029 
L 227.470671 213.462271 
L 227.123458 212.226856 
L 226.795332 209.24127 
L 226.495633 199.254998 
L 226.199183 194.004484 
L 225.905575 193.592679 
L 225.619277 204.196658 
L 225.364249 177.635235 
L 225.0812 199.254998 
L 224.741297 205.843878 
L 224.406267 217.992126 
L 224.032253 194.931046 
L 223.6757 201.725828 
L 222.697414 190.195288 
L 222.389187 190.298239 
L 222.08299 190.092337 
L 221.802378 184.224115 
L 221.498211 186.489043 
L 221.254148 184.327067 
L 220.989779 180.209017 
L 220.738811 178.355894 
L 220.482564 175.061454 
L 219.97332 185.45953 
L 219.675651 178.561797 
L 219.459608 177.635235 
L 219.176153 177.120479 
L 218.574724 150.86791 
L 218.387513 171.972916 
L 218.180404 164.04567 
L 217.356841 209.24127 
L 217.029121 211.609148 
L 216.758661 217.168516 
L 215.984235 200.799267 
L 215.513976 251.657186 
L 214.96737 247.024379 
L 214.366347 247.436184 
L 213.270699 231.47874 
L 212.329368 230.65513 
L 211.764894 235.699742 
L 211.262553 242.700427 
L 210.714323 242.906329 
L 209.485069 259.584432 
L 208.836939 266.688068 
L 208.10028 266.996922 
L 207.188594 251.142429 
L 206.202592 245.891915 
L 205.045218 250.421771 
L 204.386935 252.480796 
L 203.741242 237.24401 
L 203.07362 227.051836 
L 202.441734 221.904274 
L 200.849024 224.581006 
L 200.228509 211.197343 
L 199.578754 212.123905 
L 198.9956 204.196658 
L 198.371024 205.226171 
L 197.263193 185.871335 
L 196.960245 191.430703 
L 196.181352 195.548753 
L 195.416267 200.799267 
L 194.624379 184.121164 
L 193.936046 175.57621 
L 193.316749 173.002429 
L 192.699482 172.075868 
L 192.181709 160.854181 
L 190.883013 170.428648 
L 190.208893 168.781428 
L 189.867772 166.310598 
L 189.315887 173.92899 
L 188.311205 164.354524 
L 187.891707 162.913206 
L 187.373935 172.487673 
L 186.276256 175.57621 
L 185.174111 174.443746 
L 184.61451 170.119794 
L 184.054909 173.826039 
L 183.802723 173.620136 
L 183.238249 183.81231 
L 182.62545 176.193918 
L 181.909096 177.017528 
L 179.802674 221.801322 
L 177.556555 253.407357 
L 176.072273 250.833576 
L 176.063745 244.347647 
L 175.501301 246.30372 
L 175.501301 246.30372 
" style="fill:none;stroke:#1f77b4;stroke-linecap:square;"/>
   </g>
   <g id="line2d_15">
    <path clip-path="url(#pa1e51e0c2b)" d="M 194.624379 184.121164 
L 194.361228 191.121849 
L 193.940919 176.605723 
L 193.542538 189.886434 
L 192.110642 173.826039 
L 191.446269 173.002429 
L 191.128701 166.722403 
L 190.521181 166.825354 
L 190.224325 174.443746 
L 189.635485 173.620136 
L 189.332537 169.502086 
L 188.747352 170.428648 
L 188.452933 164.251572 
L 187.840945 165.384036 
L 187.522972 175.988015 
L 187.188755 167.34011 
L 186.837481 166.413549 
L 186.069553 175.267356 
L 185.669142 185.562482 
L 184.950758 173.723088 
L 184.757456 178.561797 
L 184.352172 176.811625 
L 184.146281 178.458845 
L 183.924146 175.57621 
L 183.511958 176.502771 
L 183.289417 179.076553 
L 183.069313 176.39982 
L 182.369203 184.018213 
L 182.135698 179.69426 
L 181.6829 182.679847 
L 181.452237 182.062139 
L 181.24594 179.488358 
L 181.08269 180.311968 
L 180.949896 185.047725 
L 180.785021 195.445802 
L 180.253035 202.755341 
L 180.138922 208.623562 
L 179.554143 232.096448 
L 179.200839 224.375104 
L 178.563674 244.553549 
L 178.095039 242.288622 
L 177.658485 244.6565 
L 177.199596 252.068991 
L 176.718372 250.627673 
L 176.246082 251.039478 
L 175.757142 250.318819 
L 175.266172 253.304406 
L 174.594082 251.245381 
L 174.110421 248.774551 
L 173.643004 244.038793 
L 173.201172 250.627673 
L 172.722384 251.142429 
L 172.253343 247.333233 
L 171.335565 254.025064 
L 170.843782 259.275578 
L 170.381645 260.099188 
L 169.893517 247.950941 
L 169.601534 248.980453 
L 169.39483 243.83289 
L 168.351975 257.010651 
L 167.759887 261.952311 
L 167.199067 258.143114 
L 166.645964 252.480796 
L 166.282508 247.024379 
L 166.101389 242.082719 
L 165.564124 244.038793 
L 164.991528 247.847989 
L 164.423399 248.877502 
L 163.587653 245.686013 
L 163.389884 236.4204 
L 163.12186 233.12596 
L 162.930589 222.316079 
L 162.664189 218.712785 
L 162.481852 207.388147 
L 162.190681 207.182245 
L 162.055857 205.432073 
L 161.646918 209.961928 
L 161.216456 218.30098 
L 160.787618 218.609834 
L 159.998167 212.123905 
L 159.771971 214.800637 
L 159.193284 233.023009 
L 158.801807 227.875446 
L 158.425356 228.287251 
L 157.707377 220.051151 
L 157.36382 220.051151 
L 157.032445 220.257054 
L 156.703101 218.403931 
L 156.391625 218.506882 
L 156.077713 220.154102 
L 155.488061 209.138318 
L 155.317094 210.270782 
L 155.192423 198.019583 
L 154.997902 201.622877 
L 154.897597 208.520611 
L 154.603989 207.799952 
L 154.301041 204.29961 
L 153.67281 211.506197 
L 153.03402 212.947515 
L 152.719702 212.741612 
L 152.101217 214.903589 
L 151.793396 214.800637 
L 151.493697 218.609834 
L 151.184658 220.874761 
L 150.882116 220.668859 
L 150.576325 223.345591 
L 150.264849 220.668859 
L 149.965962 220.257054 
L 149.657735 219.433444 
L 149.353163 219.227541 
L 149.065647 217.271467 
L 148.783816 217.47737 
L 148.483711 215.83015 
L 148.17061 215.315394 
L 147.876597 213.050466 
L 147.591111 214.285881 
L 147.281666 210.88849 
L 146.968565 217.992126 
L 146.659526 214.903589 
L 146.352111 216.139004 
L 146.047539 209.138318 
L 145.741342 213.050466 
L 145.445704 212.020954 
L 144.864174 208.108806 
L 144.586404 203.784853 
L 144.056854 205.535025 
L 143.79208 205.740927 
L 143.533396 203.270097 
L 143.022121 207.59405 
L 142.239573 209.24127 
L 141.97155 214.491784 
L 141.701902 215.521296 
L 141.414791 217.683272 
L 140.504729 226.948885 
L 139.896803 230.552179 
L 139.574769 231.47874 
L 139.246643 231.066935 
L 138.53435 252.377844 
L 138.120538 258.760822 
L 137.865915 262.158213 
L 137.680329 252.583747 
L 137.222659 252.995552 
L 136.768643 247.230282 
L 136.314221 245.788964 
L 135.851677 239.097133 
L 135.385479 240.847304 
L 134.90263 247.230282 
L 134.417345 248.671599 
L 133.933684 244.038793 
L 133.463831 241.773865 
L 132.987074 242.494524 
L 132.528997 242.391573 
L 132.061174 247.642087 
L 131.63193 249.804063 
L 131.242484 238.376474 
L 130.852225 236.729254 
L 130.487957 231.890545 
L 129.962468 229.419715 
L 129.829268 225.301665 
L 129.505204 231.47874 
L 129.216469 228.081349 
L 128.946415 227.36069 
L 128.691386 224.88986 
L 128.047724 201.82878 
L 127.92427 207.079293 
L 127.834523 200.387462 
L 127.419899 213.153417 
L 127.216038 216.859662 
L 127.095834 221.801322 
L 127.010554 221.286566 
L 126.792886 221.183615 
L 126.576843 223.24264 
L 126.369327 219.845249 
L 126.171559 219.536395 
L 125.980287 216.756711 
L 125.826377 217.271467 
L 125.435306 208.829465 
L 125.265558 205.329122 
L 125.092967 205.226171 
L 124.929716 203.373048 
L 124.766871 199.460901 
L 124.607275 198.431388 
L 124.44971 198.225486 
L 124.296206 199.460901 
L 124.138234 197.093022 
L 123.981887 196.475314 
L 123.826758 196.887119 
L 123.670005 196.269412 
L 123.51244 197.607778 
L 123.36056 196.887119 
L 123.199745 198.019583 
L 123.041368 197.813681 
L 122.883396 200.696316 
L 122.725019 199.563852 
L 122.568672 200.902218 
L 122.240546 199.049096 
L 122.074452 199.049096 
L 121.909171 201.314023 
L 121.741859 199.254998 
L 121.576172 200.593365 
L 121.407642 204.711415 
L 121.063679 201.725828 
L 120.891088 202.240585 
L 120.712405 199.049096 
L 120.346512 198.740242 
L 120.158896 202.034682 
L 119.970061 198.328437 
L 119.770262 197.916632 
L 119.566807 199.563852 
L 119.356043 199.563852 
L 119.142031 199.769754 
L 118.924363 201.82878 
L 118.700198 197.916632 
L 118.465474 199.357949 
L 117.953793 221.183615 
L 117.003933 245.48011 
L 116.850023 241.465012 
L 115.436807 225.610519 
L 114.490197 200.696316 
L 114.228671 202.858292 
L 113.249572 225.919373 
L 113.079824 222.110176 
L 112.788247 218.198029 
L 112.603473 213.153417 
L 112.291185 213.256369 
L 112.067832 218.506882 
L 111.529348 235.493839 
L 111.152491 235.59679 
L 110.940102 232.817106 
L 110.343953 222.110176 
L 109.755925 218.918687 
L 109.189015 213.35932 
L 108.622511 212.123905 
L 106.488068 191.430703 
L 105.99791 192.974972 
L 105.517498 191.018898 
L 105.032213 192.666118 
L 104.546927 194.725143 
L 104.053927 198.328437 
L 102.989548 198.534339 
L 102.416546 203.064195 
L 101.277446 208.108806 
L 100.686982 212.638661 
L 100.087583 213.977027 
L 99.730219 217.065565 
L 99.468286 223.757396 
L 98.743811 247.230282 
L 98.156189 253.716211 
L 97.811413 252.480796 
L 97.118613 252.892601 
L 96.771401 256.907699 
L 96.066417 260.510993 
L 95.702149 258.657871 
L 95.105999 259.584432 
L 94.630867 258.246066 
L 93.931975 265.040848 
L 93.561615 263.599531 
L 92.893586 262.467067 
L 92.569115 262.261165 
L 91.977027 258.451968 
L 91.648901 257.937212 
L 91.140062 264.114287 
L 90.788789 262.158213 
L 90.23731 260.510993 
L 89.972535 257.731309 
L 89.447453 264.937897 
L 89.177399 260.613945 
L 88.671403 266.996922 
L 88.409064 267.511678 
L 87.992816 261.334603 
L 87.696771 259.37853 
L 87.256563 254.025064 
L 87.014529 253.716211 
L 86.368024 263.49658 
L 85.941623 270.497265 
L 85.34994 266.173312 
L 85.078262 262.878872 
L 84.66445 264.937897 
L 84.446376 263.702482 
L 84.045965 263.599531 
L 83.455907 274.821217 
L 83.241082 274.512364 
L 82.907677 280.483536 
L 82.674578 281.616 
L 82.120256 274.512364 
L 81.615884 263.393628 
L 81.165117 257.937212 
L 80.905216 260.099188 
L 80.430489 253.716211 
L 79.417685 231.787594 
L 79.181743 234.464326 
L 79.037985 237.964669 
L 78.817068 236.317449 
L 78.690366 234.464326 
L 78.320413 221.492469 
L 78.067414 220.668859 
L 77.930154 221.183615 
L 77.735228 228.699056 
L 77.5935 226.640031 
L 77.252785 235.699742 
L 77.00466 234.567278 
L 76.633082 229.110861 
L 76.159574 234.361375 
L 75.944343 234.361375 
L 75.831854 232.405301 
L 75.616623 232.30235 
L 75.507789 232.096448 
L 75.197938 227.257739 
L 75.017225 227.36069 
L 74.89499 224.272153 
L 74.592854 222.727884 
L 74.112848 215.521296 
L 74.019852 216.447857 
L 73.848073 215.521296 
L 73.726651 211.300295 
L 73.446038 216.550809 
L 73.25233 211.197343 
L 73.15974 217.374419 
L 72.886437 214.697686 
L 72.73009 215.83015 
L 72.615977 215.418345 
L 72.442574 218.506882 
L 72.351202 216.550809 
L 72.087646 217.271467 
L 71.91343 215.933101 
L 71.819216 216.962614 
L 71.558908 214.388832 
L 71.379414 214.594735 
L 71.283981 213.668174 
L 71.103674 216.756711 
L 71.012302 216.550809 
L 70.837681 215.933101 
L 70.737781 218.506882 
L 70.267928 220.462956 
L 70.159906 223.551494 
L 69.959295 225.198714 
L 69.869141 223.860348 
L 69.653504 223.963299 
L 69.541421 225.610519 
L 69.346495 222.830835 
L 69.202331 223.963299 
L 68.628111 222.213127 
L 68.291051 219.021639 
L 68.130237 218.609834 
L 67.906884 220.257054 
L 67.794395 220.257054 
L 67.484949 217.47737 
L 67.307485 223.036737 
L 67.010629 222.933786 
L 66.901795 223.448543 
L 65.573454 232.096448 
L 65.347258 231.581691 
L 64.86644 233.12596 
L 64.293032 233.331863 
L 63.882875 229.419715 
L 63.702162 230.037423 
L 63.339924 234.155473 
L 63.108449 229.625618 
L 62.574432 247.230282 
L 61.878383 268.541191 
L 61.466195 264.937897 
L 60.847305 245.891915 
L 60.554509 240.744353 
L 60.11024 238.582377 
L 59.975822 238.788279 
L 59.577441 241.773865 
L 59.328098 245.891915 
L 58.971545 245.583062 
L 58.815198 244.038793 
L 58.461895 247.745038 
L 58.242602 246.715526 
L 57.903106 247.127331 
L 57.759754 246.818477 
L 57.200153 248.259794 
L 56.93619 248.156843 
L 56.781874 247.333233 
L 56.452124 248.465697 
L 56.286842 246.30372 
L 55.997296 248.362746 
L 55.606631 246.921428 
L 55.451908 244.759452 
L 55.104696 251.039478 
L 54.852916 248.156843 
L 54.698193 242.391573 
L 54.465094 244.038793 
L 54.37088 240.744353 
L 54.117882 241.465012 
L 53.611074 254.642772 
L 53.148124 274.100559 
L 52.845988 274.409412 
L 52.729844 276.468437 
L 52.417962 275.130071 
L 52.221818 270.600216 
L 51.947703 271.217924 
L 51.803133 272.55629 
L 51.293888 270.90907 
L 50.890634 272.762192 
L 50.562914 269.776606 
L 50.373267 272.144485 
L 50.109711 272.144485 
L 49.970826 272.55629 
L 49.641076 271.526777 
L 49.120866 268.026435 
L 49.006347 268.850045 
L 48.671317 266.585117 
L 48.456492 262.570018 
L 48.141768 264.731995 
L 47.990294 255.981138 
L 47.581761 261.128701 
L 47.415261 256.701797 
L 46.409361 241.36206 
L 45.96631 232.611204 
L 45.845699 236.626303 
L 45.757982 234.258424 
L 45.592295 233.94957 
L 44.935637 245.274208 
L 44.548627 246.097818 
L 44.300502 240.023694 
L 43.972783 235.905644 
L 43.790851 236.935157 
L 43.641814 225.919373 
L 43.541102 230.346276 
L 43.413182 227.566593 
L 43.176022 229.110861 
L 42.657436 236.214498 
L 42.257025 238.479425 
L 41.623921 229.316764 
L 41.463513 230.346276 
L 41.275084 223.448543 
L 41.16422 225.610519 
L 40.783708 213.050466 
L 40.674062 215.727199 
L 40.56604 213.565222 
L 40.384109 222.007225 
L 40.234666 220.565907 
L 39.84197 221.492469 
L 39.026529 210.682587 
L 38.626118 212.432759 
L 38.382866 207.182245 
L 38.009258 204.711415 
L 37.86956 204.917317 
L 37.504886 205.226171 
L 37.275035 207.182245 
L 36.907924 202.446487 
L 36.768227 208.314708 
L 36.3934 202.240585 
L 36.180606 204.814366 
L 35.691666 198.740242 
L 35.332676 204.093707 
L 35.111354 200.18156 
L 34.665866 195.342851 
L 34.341801 190.298239 
L 34.14322 193.798582 
L 33.754586 203.064195 
L 33.40778 222.007225 
L 33.207168 225.301665 
L 32.893662 233.640716 
L 32.737315 230.449228 
L 32.350305 236.523352 
L 32.110708 247.127331 
L 31.760653 248.259794 
L 31.63192 243.112232 
L 30.843281 257.319504 
L 30.329569 263.393628 
L 30.072916 264.32019 
L 29.499102 261.643457 
L 29.499102 261.643457 
" style="fill:none;stroke:#17becf;stroke-linecap:square;"/>
   </g>
   <g id="line2d_16">
    <path clip-path="url(#pa1e51e0c2b)" d="M 0 0 
" style="fill:none;stroke:#17becf;stroke-linecap:square;"/>
   </g>
   <g id="patch_4">
    <path d="M 13.266375 293.712 
L 13.266375 27.6 
" style="fill:none;stroke:#000000;stroke-linecap:square;stroke-linejoin:miter;stroke-width:0.8;"/>
   </g>
   <g id="patch_5">
    <path d="M 370.386375 293.712 
L 370.386375 27.6 
" style="fill:none;stroke:#000000;stroke-linecap:square;stroke-linejoin:miter;stroke-width:0.8;"/>
   </g>
   <g id="patch_6">
    <path d="M 13.266375 293.712 
L 370.386375 293.712 
" style="fill:none;stroke:#000000;stroke-linecap:square;stroke-linejoin:miter;stroke-width:0.8;"/>
   </g>
   <g id="patch_7">
    <path d="M 13.266375 27.6 
L 370.386375 27.6 
" style="fill:none;stroke:#000000;stroke-linecap:square;stroke-linejoin:miter;stroke-width:0.8;"/>
   </g>
   <g id="patch_8">
    <path d="M 331.671311 102.70217 
Q 342.709617 140.032462 353.747923 177.362754 
" style="fill:none;opacity:0.9;stroke:#000000;stroke-linecap:round;stroke-width:0.8;"/>
   </g>
   <g id="patch_9">
    <path d="M 332.879838 41.319613 
Q 342.709532 36.248662 352.539225 31.177711 
" style="fill:none;opacity:0.9;stroke:#000000;stroke-linecap:round;stroke-width:0.8;"/>
   </g>
   <g id="text_13">
    <!-- Κύκλοι Παγετώνων  -->
    <g transform="translate(7.2 181.813185)scale(0.12 -0.12)">
     <defs>
      <path d="M 628 4666 
L 1259 4666 
L 1259 2694 
L 3353 4666 
L 4166 4666 
L 1850 2491 
L 4331 0 
L 3500 0 
L 1259 2247 
L 1259 0 
L 628 0 
L 628 4666 
z
" id="DejaVuSans-39a" transform="scale(0.015625)"/>
      <path d="M 2138 5119 
L 2760 5119 
L 1742 3944 
L 1263 3944 
L 2138 5119 
z
M 1056 3500 
L 1056 1234 
Q 1056 813 1213 613 
Q 1384 397 1719 397 
Q 2188 397 2516 1047 
Q 2700 1416 2747 2000 
Q 2772 2319 2678 2719 
Q 2591 3091 2259 3500 
L 2841 3500 
L 2841 3500 
Q 3059 3219 3200 2834 
Q 3331 2475 3331 1994 
Q 3331 1203 2931 619 
Q 2444 -94 1650 -91 
Q 1091 -91 775 284 
Q 469 653 469 1269 
L 466 3500 
L 1056 3500 
z
" id="DejaVuSans-3cd" transform="scale(0.015625)"/>
      <path d="M 1959 3097 
Q 1497 3097 1228 2736 
Q 959 2375 959 1747 
Q 959 1119 1226 758 
Q 1494 397 1959 397 
Q 2419 397 2687 759 
Q 2956 1122 2956 1747 
Q 2956 2369 2687 2733 
Q 2419 3097 1959 3097 
z
M 1959 3584 
Q 2709 3584 3137 3096 
Q 3566 2609 3566 1747 
Q 3566 888 3137 398 
Q 2709 -91 1959 -91 
Q 1206 -91 779 398 
Q 353 888 353 1747 
Q 353 2609 779 3096 
Q 1206 3584 1959 3584 
z
" id="DejaVuSans-3bf" transform="scale(0.015625)"/>
      <path d="M 4184 4666 
L 4184 0 
L 3553 0 
L 3553 4134 
L 1259 4134 
L 1259 0 
L 628 0 
L 628 4666 
L 4184 4666 
z
" id="DejaVuSans-3a0" transform="scale(0.015625)"/>
      <path d="M 1719 -91 
Q 422 -91 422 1766 
Q 422 2500 906 3500 
L 1525 3500 
Q 1078 2500 1078 1750 
Q 1078 397 1772 397 
Q 2406 397 2406 2078 
L 2938 2078 
Q 2938 397 3572 397 
Q 4266 397 4266 1750 
Q 4266 2500 3819 3500 
L 4438 3500 
Q 4922 2500 4922 1766 
Q 4922 -91 3625 -91 
Q 2775 -91 2672 844 
Q 2544 -91 1719 -91 
z
M 3114 5119 
L 3736 5119 
L 2718 3944 
L 2239 3944 
L 3114 5119 
z
" id="DejaVuSans-3ce" transform="scale(0.015625)"/>
     </defs>
     <use xlink:href="#DejaVuSans-39a"/>
     <use x="65.576172" xlink:href="#DejaVuSans-3cd"/>
     <use x="123.4375" xlink:href="#DejaVuSans-3ba"/>
     <use x="182.373047" xlink:href="#DejaVuSans-3bb"/>
     <use x="241.552734" xlink:href="#DejaVuSans-3bf"/>
     <use x="302.734375" xlink:href="#DejaVuSans-3b9"/>
     <use x="336.572266" xlink:href="#DejaVuSans-20"/>
     <use x="368.359375" xlink:href="#DejaVuSans-3a0"/>
     <use x="443.554688" xlink:href="#DejaVuSans-3b1"/>
     <use x="509.472656" xlink:href="#DejaVuSans-3b3"/>
     <use x="568.652344" xlink:href="#DejaVuSans-3b5"/>
     <use x="622.705078" xlink:href="#DejaVuSans-3c4"/>
     <use x="682.910156" xlink:href="#DejaVuSans-3ce"/>
     <use x="766.650391" xlink:href="#DejaVuSans-3bd"/>
     <use x="822.509766" xlink:href="#DejaVuSans-3c9"/>
     <use x="906.25" xlink:href="#DejaVuSans-3bd"/>
     <use x="962.109375" xlink:href="#DejaVuSans-20"/>
    </g>
    <!--  -->
    <g transform="translate(66.834375 195.25056)scale(0.12 -0.12)"/>
   </g>
   <g id="text_14">
    <!-- Ιστορικό Επίπεδο CO$_2$ -->
    <g transform="translate(94.086375 21.6)scale(0.18 -0.18)">
     <defs>
      <path d="M 628 4666 
L 1259 4666 
L 1259 0 
L 628 0 
L 628 4666 
z
" id="DejaVuSans-399" transform="scale(0.015625)"/>
      <path d="M 628 4666 
L 3578 4666 
L 3578 4134 
L 1259 4134 
L 1259 2753 
L 3481 2753 
L 3481 2222 
L 1259 2222 
L 1259 531 
L 3634 531 
L 3634 0 
L 628 0 
L 628 4666 
z
" id="DejaVuSans-395" transform="scale(0.015625)"/>
      <path d="M 1109 3500 
L 1109 1234 
Q 1109 781 1216 638 
Q 1328 488 1666 488 
L 1944 488 
L 1944 0 
L 1597 0 
Q 1034 0 778 300 
Q 522 606 522 1269 
L 519 3500 
L 1109 3500 
z
M 1450 5119 
L 2072 5119 
L 1054 3944 
L 575 3944 
L 1450 5119 
z
" id="DejaVuSans-3af" transform="scale(0.015625)"/>
     </defs>
     <use transform="translate(0 0.015625)" xlink:href="#DejaVuSans-399"/>
     <use transform="translate(29.492188 0.015625)" xlink:href="#DejaVuSans-3c3"/>
     <use transform="translate(92.871094 0.015625)" xlink:href="#DejaVuSans-3c4"/>
     <use transform="translate(153.076172 0.015625)" xlink:href="#DejaVuSans-3bf"/>
     <use transform="translate(214.257812 0.015625)" xlink:href="#DejaVuSans-3c1"/>
     <use transform="translate(277.734375 0.015625)" xlink:href="#DejaVuSans-3b9"/>
     <use transform="translate(311.572266 0.015625)" xlink:href="#DejaVuSans-3ba"/>
     <use transform="translate(370.507812 0.015625)" xlink:href="#DejaVuSans-3cc"/>
     <use transform="translate(431.689453 0.015625)" xlink:href="#DejaVuSans-20"/>
     <use transform="translate(463.476562 0.015625)" xlink:href="#DejaVuSans-395"/>
     <use transform="translate(526.660156 0.015625)" xlink:href="#DejaVuSans-3c0"/>
     <use transform="translate(586.865234 0.015625)" xlink:href="#DejaVuSans-3af"/>
     <use transform="translate(620.703125 0.015625)" xlink:href="#DejaVuSans-3c0"/>
     <use transform="translate(680.908203 0.015625)" xlink:href="#DejaVuSans-3b5"/>
     <use transform="translate(734.960938 0.015625)" xlink:href="#DejaVuSans-3b4"/>
     <use transform="translate(796.142578 0.015625)" xlink:href="#DejaVuSans-3bf"/>
     <use transform="translate(857.324219 0.015625)" xlink:href="#DejaVuSans-20"/>
     <use transform="translate(889.111328 0.015625)" xlink:href="#DejaVuSans-43"/>
     <use transform="translate(958.935547 0.015625)" xlink:href="#DejaVuSans-4f"/>
     <use transform="translate(1038.603516 -16.390625)scale(0.7)" xlink:href="#DejaVuSans-32"/>
    </g>
   </g>
  </g>
  <g id="axes_2">
   <g id="patch_10">
    <path d="M 41.766375 139.628 
L 308.166375 139.628 
L 308.166375 89.228 
L 41.766375 89.228 
z
" style="fill:#ffffff;"/>
   </g>
   <g id="matplotlib.axis_3">
    <g id="xtick_6">
     <g id="line2d_17">
      <defs>
       <path d="M 0 0 
L 0 -3.5 
" id="mf4c157489b" style="stroke:#000000;stroke-width:0.8;"/>
      </defs>
      <g>
       <use style="stroke:#000000;stroke-width:0.8;" x="41.766375" xlink:href="#mf4c157489b" y="139.628"/>
      </g>
     </g>
     <g id="text_15">
      <!-- 1000 -->
      <g transform="translate(25.223875 153.005969)scale(0.13 -0.13)">
       <defs>
        <path d="M 794 531 
L 1825 531 
L 1825 4091 
L 703 3866 
L 703 4441 
L 1819 4666 
L 2450 4666 
L 2450 531 
L 3481 531 
L 3481 0 
L 794 0 
L 794 531 
z
" id="DejaVuSans-31" transform="scale(0.015625)"/>
       </defs>
       <use xlink:href="#DejaVuSans-31"/>
       <use x="63.623047" xlink:href="#DejaVuSans-30"/>
       <use x="127.246094" xlink:href="#DejaVuSans-30"/>
       <use x="190.869141" xlink:href="#DejaVuSans-30"/>
      </g>
     </g>
    </g>
    <g id="xtick_7">
     <g id="line2d_18">
      <g>
       <use style="stroke:#000000;stroke-width:0.8;" x="106.741985" xlink:href="#mf4c157489b" y="139.628"/>
      </g>
     </g>
     <g id="text_16">
      <!-- 1250 -->
      <g transform="translate(90.199485 153.005969)scale(0.13 -0.13)">
       <use xlink:href="#DejaVuSans-31"/>
       <use x="63.623047" xlink:href="#DejaVuSans-32"/>
       <use x="127.246094" xlink:href="#DejaVuSans-35"/>
       <use x="190.869141" xlink:href="#DejaVuSans-30"/>
      </g>
     </g>
    </g>
    <g id="xtick_8">
     <g id="line2d_19">
      <g>
       <use style="stroke:#000000;stroke-width:0.8;" x="171.717595" xlink:href="#mf4c157489b" y="139.628"/>
      </g>
     </g>
     <g id="text_17">
      <!-- 1500 -->
      <g transform="translate(155.175095 153.005969)scale(0.13 -0.13)">
       <use xlink:href="#DejaVuSans-31"/>
       <use x="63.623047" xlink:href="#DejaVuSans-35"/>
       <use x="127.246094" xlink:href="#DejaVuSans-30"/>
       <use x="190.869141" xlink:href="#DejaVuSans-30"/>
      </g>
     </g>
    </g>
    <g id="xtick_9">
     <g id="line2d_20">
      <g>
       <use style="stroke:#000000;stroke-width:0.8;" x="236.693204" xlink:href="#mf4c157489b" y="139.628"/>
      </g>
     </g>
     <g id="text_18">
      <!-- 1750 -->
      <g transform="translate(220.150704 153.005969)scale(0.13 -0.13)">
       <defs>
        <path d="M 525 4666 
L 3525 4666 
L 3525 4397 
L 1831 0 
L 1172 0 
L 2766 4134 
L 525 4134 
L 525 4666 
z
" id="DejaVuSans-37" transform="scale(0.015625)"/>
       </defs>
       <use xlink:href="#DejaVuSans-31"/>
       <use x="63.623047" xlink:href="#DejaVuSans-37"/>
       <use x="127.246094" xlink:href="#DejaVuSans-35"/>
       <use x="190.869141" xlink:href="#DejaVuSans-30"/>
      </g>
     </g>
    </g>
    <g id="xtick_10">
     <g id="line2d_21">
      <g>
       <use style="stroke:#000000;stroke-width:0.8;" x="301.668814" xlink:href="#mf4c157489b" y="139.628"/>
      </g>
     </g>
     <g id="text_19">
      <!-- 2000 -->
      <g transform="translate(285.126314 153.005969)scale(0.13 -0.13)">
       <use xlink:href="#DejaVuSans-32"/>
       <use x="63.623047" xlink:href="#DejaVuSans-30"/>
       <use x="127.246094" xlink:href="#DejaVuSans-30"/>
       <use x="190.869141" xlink:href="#DejaVuSans-30"/>
      </g>
     </g>
    </g>
    <g id="text_20">
     <!-- έτος (CE) -->
     <g transform="translate(143.964422 165.907531)scale(0.13 -0.13)">
      <defs>
       <path d="M 628 4666 
L 3578 4666 
L 3578 4134 
L 1259 4134 
L 1259 2753 
L 3481 2753 
L 3481 2222 
L 1259 2222 
L 1259 531 
L 3634 531 
L 3634 0 
L 628 0 
L 628 4666 
z
" id="DejaVuSans-45" transform="scale(0.015625)"/>
      </defs>
      <use xlink:href="#DejaVuSans-3ad"/>
      <use x="54.052734" xlink:href="#DejaVuSans-3c4"/>
      <use x="114.257812" xlink:href="#DejaVuSans-3bf"/>
      <use x="175.439453" xlink:href="#DejaVuSans-3c2"/>
      <use x="234.130859" xlink:href="#DejaVuSans-20"/>
      <use x="265.917969" xlink:href="#DejaVuSans-28"/>
      <use x="304.931641" xlink:href="#DejaVuSans-43"/>
      <use x="374.755859" xlink:href="#DejaVuSans-45"/>
      <use x="437.939453" xlink:href="#DejaVuSans-29"/>
     </g>
    </g>
   </g>
   <g id="matplotlib.axis_4">
    <g id="ytick_6">
     <g id="line2d_22">
      <g>
       <use style="stroke:#000000;stroke-width:0.8;" x="41.766375" xlink:href="#m788372da65" y="127.028"/>
      </g>
     </g>
     <g id="text_21">
      <!-- 300 -->
      <g transform="translate(13.452625 131.966984)scale(0.13 -0.13)">
       <use xlink:href="#DejaVuSans-33"/>
       <use x="63.623047" xlink:href="#DejaVuSans-30"/>
       <use x="127.246094" xlink:href="#DejaVuSans-30"/>
      </g>
     </g>
    </g>
    <g id="ytick_7">
     <g id="line2d_23">
      <g>
       <use style="stroke:#000000;stroke-width:0.8;" x="41.766375" xlink:href="#m788372da65" y="111.278"/>
      </g>
     </g>
     <g id="text_22">
      <!-- 350 -->
      <g transform="translate(13.452625 116.216984)scale(0.13 -0.13)">
       <use xlink:href="#DejaVuSans-33"/>
       <use x="63.623047" xlink:href="#DejaVuSans-35"/>
       <use x="127.246094" xlink:href="#DejaVuSans-30"/>
      </g>
     </g>
    </g>
    <g id="ytick_8">
     <g id="line2d_24">
      <g>
       <use style="stroke:#000000;stroke-width:0.8;" x="41.766375" xlink:href="#m788372da65" y="95.528"/>
      </g>
     </g>
     <g id="text_23">
      <!-- 400 -->
      <g transform="translate(13.452625 100.466984)scale(0.13 -0.13)">
       <use xlink:href="#DejaVuSans-34"/>
       <use x="63.623047" xlink:href="#DejaVuSans-30"/>
       <use x="127.246094" xlink:href="#DejaVuSans-30"/>
      </g>
     </g>
    </g>
   </g>
   <g id="line2d_25">
    <path clip-path="url(#p85c8799b1c)" d="M 44.365399 133.643 
L 49.563448 133.643 
L 50.86296 133.328 
L 57.360521 133.328 
L 58.660034 133.013 
L 63.858082 133.013 
L 65.157595 132.698 
L 70.355643 132.698 
L 71.655155 132.383 
L 80.751741 132.383 
L 82.051253 132.068 
L 89.848326 132.068 
L 91.147838 132.383 
L 97.645399 132.383 
L 98.944912 132.698 
L 104.14296 132.698 
L 105.442473 133.013 
L 108.041497 133.013 
L 109.341009 132.698 
L 118.437595 132.698 
L 119.737107 132.383 
L 127.53418 132.383 
L 128.833692 132.698 
L 132.732229 132.698 
L 134.031741 133.013 
L 137.930277 133.013 
L 139.22979 133.328 
L 165.220034 133.328 
L 166.519546 133.013 
L 170.418082 133.013 
L 171.717595 132.698 
L 175.616131 132.698 
L 176.915643 132.383 
L 183.413204 132.383 
L 184.712716 132.698 
L 187.311741 132.698 
L 188.611253 133.013 
L 189.910765 133.013 
L 193.809302 133.958 
L 195.108814 133.958 
L 199.007351 134.903 
L 206.804424 134.903 
L 208.103936 134.588 
L 226.297107 134.588 
L 227.596619 134.273 
L 231.495155 134.273 
L 232.794668 134.588 
L 235.393692 134.588 
L 236.693204 134.273 
L 239.292229 134.273 
L 240.591741 133.958 
L 241.891253 133.958 
L 244.490277 133.328 
L 245.78979 133.328 
L 248.388814 132.698 
L 249.688326 132.698 
L 250.987838 132.383 
L 252.287351 132.383 
L 253.586863 132.068 
L 261.383936 132.068 
L 262.683448 131.753 
L 263.98296 131.753 
L 270.480521 130.178 
L 271.780034 129.548 
L 273.079546 129.233 
L 274.379058 128.603 
L 275.67857 128.288 
L 276.978082 127.658 
L 278.277595 127.343 
L 280.876619 126.083 
L 282.176131 125.768 
L 284.775155 124.508 
L 287.37418 123.878 
L 291.272716 121.988 
L 293.871741 119.468 
L 295.171253 117.893 
L 295.171253 117.893 
" style="fill:none;stroke:#2ca02c;stroke-linecap:square;stroke-width:2.2;"/>
   </g>
   <g id="line2d_26">
    <path clip-path="url(#p85c8799b1c)" d="M 291.012814 121.994037 
L 291.272716 121.70135 
L 291.532619 121.469825 
L 291.792521 121.214937 
L 292.052424 121.045362 
L 292.312326 120.84875 
L 292.572229 120.716712 
L 292.832131 120.296712 
L 293.092034 120.041037 
L 293.351936 119.767512 
L 293.611838 119.271912 
L 293.871741 118.93775 
L 294.131643 118.737725 
L 294.391546 118.378887 
L 294.651448 117.679587 
L 294.911351 117.501087 
L 295.171253 117.214962 
L 295.431155 116.900225 
L 295.691058 116.349237 
L 295.95096 115.844187 
L 296.210863 115.419987 
L 296.470765 114.842225 
L 296.730668 114.448737 
L 296.99057 114.071525 
L 297.250473 113.552037 
L 297.510375 113.035175 
L 297.770277 112.56845 
L 298.03018 112.174962 
L 298.290082 111.614 
L 298.549985 110.810487 
L 298.809887 110.361875 
L 299.06979 109.959462 
L 299.329692 109.516625 
L 299.589595 109.2704 
L 299.849497 109.0604 
L 300.109399 108.478962 
L 300.369302 107.851587 
L 300.629204 107.2964 
L 300.889107 106.94255 
L 301.149009 106.03955 
L 301.408912 105.509562 
L 301.668814 105.143375 
L 301.928716 104.656962 
L 302.188619 104.00255 
L 302.448521 103.202187 
L 302.708424 102.65855 
L 302.968326 101.953212 
L 303.228229 101.258375 
L 303.488131 100.6961 
L 303.748034 100.111512 
L 304.007936 99.509862 
L 304.267838 98.7095 
L 304.527741 98.158512 
L 304.787643 97.45895 
L 305.047546 96.6095 
L 305.307448 95.9648 
L 305.567351 95.249225 
L 305.827253 94.180587 
L 306.087155 93.453725 
" style="fill:none;stroke:#000000;stroke-linecap:square;stroke-width:2.2;"/>
   </g>
   <g id="patch_11">
    <path d="M 41.766375 139.628 
L 41.766375 89.228 
" style="fill:none;stroke:#000000;stroke-linecap:square;stroke-linejoin:miter;stroke-width:0.8;"/>
   </g>
   <g id="patch_12">
    <path d="M 308.166375 139.628 
L 308.166375 89.228 
" style="fill:none;stroke:#000000;stroke-linecap:square;stroke-linejoin:miter;stroke-width:0.8;"/>
   </g>
   <g id="patch_13">
    <path d="M 41.766375 139.628 
L 308.166375 139.628 
" style="fill:none;stroke:#000000;stroke-linecap:square;stroke-linejoin:miter;stroke-width:0.8;"/>
   </g>
   <g id="patch_14">
    <path d="M 41.766375 89.228 
L 308.166375 89.228 
" style="fill:none;stroke:#000000;stroke-linecap:square;stroke-linejoin:miter;stroke-width:0.8;"/>
   </g>
   <g id="patch_15">
    <path d="M 214.258314 110.745977 
Q 224.693879 119.052152 234.25468 126.66206 
" style="fill:none;opacity:0.7;stroke:#000000;stroke-linecap:round;"/>
    <path d="M 231.993725 121.79502 
L 234.25468 126.66206 
L 229.004475 125.550601 
" style="fill:none;opacity:0.7;stroke:#000000;stroke-linecap:round;"/>
   </g>
   <g id="text_24">
    <!-- Έναρξη Βιομηχανικής Επανάστασης -->
    <g transform="translate(93.746863 104.978)scale(0.12 -0.12)">
     <defs>
      <path d="M 794 5119 
L 1416 5119 
L 398 3944 
L -81 3944 
L 794 5119 
z
M 1356 4666 
L 4306 4666 
L 4306 4134 
L 1987 4134 
L 1987 2753 
L 4209 2753 
L 4209 2222 
L 1987 2222 
L 1987 531 
L 4362 531 
L 4362 0 
L 1356 0 
L 1356 4666 
z
" id="DejaVuSans-388" transform="scale(0.015625)"/>
      <path d="M 2281 397 
Q 2694 394 2941 159 
Q 3203 -88 3203 -463 
Q 3203 -822 2972 -1072 
Q 2722 -1344 2213 -1344 
Q 2213 -1109 2213 -872 
Q 2428 -888 2559 -750 
Q 2659 -641 2659 -525 
Q 2659 -359 2559 -222 
Q 2463 -91 2281 -91 
Q 334 -91 334 1275 
Q 334 2213 1375 2488 
Q 500 2600 500 3413 
Q 500 4028 1188 4284 
L 538 4284 
L 538 4863 
L 3003 4863 
L 3003 4284 
Q 1038 4284 1038 3375 
Q 1038 2778 2688 2750 
L 2688 2219 
Q 906 2288 913 1275 
Q 916 428 2281 397 
z
" id="DejaVuSans-3be" transform="scale(0.015625)"/>
      <path d="M 1259 2228 
L 1259 519 
L 2272 519 
Q 2781 519 3026 730 
Q 3272 941 3272 1375 
Q 3272 1813 3026 2020 
Q 2781 2228 2272 2228 
L 1259 2228 
z
M 1259 4147 
L 1259 2741 
L 2194 2741 
Q 2656 2741 2882 2914 
Q 3109 3088 3109 3444 
Q 3109 3797 2882 3972 
Q 2656 4147 2194 4147 
L 1259 4147 
z
M 628 4666 
L 2241 4666 
Q 2963 4666 3353 4366 
Q 3744 4066 3744 3513 
Q 3744 3084 3544 2831 
Q 3344 2578 2956 2516 
Q 3422 2416 3680 2098 
Q 3938 1781 3938 1306 
Q 3938 681 3513 340 
Q 3088 0 2303 0 
L 628 0 
L 628 4666 
z
" id="DejaVuSans-392" transform="scale(0.015625)"/>
      <path d="M 544 -1331 
L 544 3500 
L 1119 3500 
L 1119 1325 
Q 1119 872 1334 640 
Q 1550 409 1972 409 
Q 2434 409 2667 671 
Q 2900 934 2900 1459 
L 2900 3500 
L 3475 3500 
L 3475 806 
Q 3475 619 3529 530 
Q 3584 441 3700 441 
Q 3728 441 3778 458 
Q 3828 475 3916 513 
L 3916 50 
Q 3788 -22 3673 -56 
Q 3559 -91 3450 -91 
Q 3234 -91 3106 31 
Q 2978 153 2931 403 
Q 2775 156 2548 32 
Q 2322 -91 2016 -91 
Q 1697 -91 1473 31 
Q 1250 153 1119 397 
L 1119 -1331 
L 544 -1331 
z
" id="DejaVuSans-3bc" transform="scale(0.015625)"/>
      <path d="M 2650 5119 
L 3272 5119 
L 2254 3944 
L 1775 3944 
L 2650 5119 
z
M 3513 2113 
L 3513 -1331 
L 2938 -1331 
L 2938 2094 
Q 2938 2591 2744 2837 
Q 2550 3084 2163 3084 
Q 1697 3084 1428 2787 
Q 1159 2491 1159 1978 
L 1159 0 
L 581 0 
L 581 3500 
L 1159 3500 
L 1159 2956 
Q 1366 3272 1644 3428 
Q 1925 3584 2291 3584 
Q 2894 3584 3203 3213 
Q 3513 2838 3513 2113 
z
" id="DejaVuSans-3ae" transform="scale(0.015625)"/>
     </defs>
     <use xlink:href="#DejaVuSans-388"/>
     <use x="74.609375" xlink:href="#DejaVuSans-3bd"/>
     <use x="130.46875" xlink:href="#DejaVuSans-3b1"/>
     <use x="196.386719" xlink:href="#DejaVuSans-3c1"/>
     <use x="259.863281" xlink:href="#DejaVuSans-3be"/>
     <use x="315.625" xlink:href="#DejaVuSans-3b7"/>
     <use x="379.003906" xlink:href="#DejaVuSans-20"/>
     <use x="410.791016" xlink:href="#DejaVuSans-392"/>
     <use x="479.394531" xlink:href="#DejaVuSans-3b9"/>
     <use x="513.232422" xlink:href="#DejaVuSans-3bf"/>
     <use x="574.414062" xlink:href="#DejaVuSans-3bc"/>
     <use x="638.037109" xlink:href="#DejaVuSans-3b7"/>
     <use x="701.416016" xlink:href="#DejaVuSans-3c7"/>
     <use x="759.179688" xlink:href="#DejaVuSans-3b1"/>
     <use x="825.097656" xlink:href="#DejaVuSans-3bd"/>
     <use x="880.957031" xlink:href="#DejaVuSans-3b9"/>
     <use x="914.794922" xlink:href="#DejaVuSans-3ba"/>
     <use x="973.730469" xlink:href="#DejaVuSans-3ae"/>
     <use x="1037.109375" xlink:href="#DejaVuSans-3c2"/>
     <use x="1095.800781" xlink:href="#DejaVuSans-20"/>
     <use x="1127.587891" xlink:href="#DejaVuSans-395"/>
     <use x="1190.771484" xlink:href="#DejaVuSans-3c0"/>
     <use x="1250.976562" xlink:href="#DejaVuSans-3b1"/>
     <use x="1316.894531" xlink:href="#DejaVuSans-3bd"/>
     <use x="1372.753906" xlink:href="#DejaVuSans-3ac"/>
     <use x="1438.671875" xlink:href="#DejaVuSans-3c3"/>
     <use x="1502.050781" xlink:href="#DejaVuSans-3c4"/>
     <use x="1562.255859" xlink:href="#DejaVuSans-3b1"/>
     <use x="1628.173828" xlink:href="#DejaVuSans-3c3"/>
     <use x="1691.552734" xlink:href="#DejaVuSans-3b7"/>
     <use x="1754.931641" xlink:href="#DejaVuSans-3c2"/>
    </g>
   </g>
  </g>
 </g>
 <defs>
  <clipPath id="pa1e51e0c2b">
   <rect height="266.112" width="357.12" x="13.266375" y="27.6"/>
  </clipPath>
  <clipPath id="p85c8799b1c">
   <rect height="50.4" width="266.4" x="41.766375" y="89.228"/>
  </clipPath>
 </defs>
</svg>
